<?xml version="1.0" encoding="UTF-8" standalone="no"?>
<!-- Created with Inkscape (http://www.inkscape.org/) -->

<svg
   xmlns:dc="http://purl.org/dc/elements/1.1/"
   xmlns:cc="http://creativecommons.org/ns#"
   xmlns:rdf="http://www.w3.org/1999/02/22-rdf-syntax-ns#"
   xmlns:svg="http://www.w3.org/2000/svg"
   xmlns="http://www.w3.org/2000/svg"
   xmlns:sodipodi="http://sodipodi.sourceforge.net/DTD/sodipodi-0.dtd"
   xmlns:inkscape="http://www.inkscape.org/namespaces/inkscape"
   width="100pt"
   height="100pt"
   viewBox="0 0 35.277779 35.277777"
   version="1.1"
   id="svg8"
   inkscape:version="0.92.3 (2405546, 2018-03-11)"
   sodipodi:docname="2.svg">
  <defs
     id="defs2" />
  <sodipodi:namedview
     id="base"
     pagecolor="#ffffff"
     bordercolor="#666666"
     borderopacity="1.0"
     inkscape:pageopacity="0.0"
     inkscape:pageshadow="2"
     inkscape:zoom="5.6"
     inkscape:cx="34.889474"
     inkscape:cy="53.430393"
     inkscape:document-units="mm"
     inkscape:current-layer="layer1"
     showgrid="false"
     units="pt" />
  <metadata
     id="metadata5">
    <rdf:RDF>
      <cc:Work
         rdf:about="">
        <dc:format>image/svg+xml</dc:format>
        <dc:type
           rdf:resource="http://purl.org/dc/dcmitype/StillImage" />
        <dc:title />
      </cc:Work>
    </rdf:RDF>
  </metadata>
  <g
     inkscape:label="Layer 1"
     inkscape:groupmode="layer"
     id="layer1"
     transform="translate(0,-261.72223)">
    <g
       aria-label="2"
       style="font-style:normal;font-variant:normal;font-weight:normal;font-stretch:normal;font-size:21.87302208px;line-height:1.25;font-family:'Times New Roman';-inkscape-font-specification:'Times New Roman, ';letter-spacing:0px;word-spacing:0px;fill:#000000;fill-opacity:1;stroke:none;stroke-width:0.36923754"
       id="text840"
       transform="matrix(0.71656667,0,0,0.71656667,4.9994489,79.180259)">
      <path
         d="M 22.800922,287.27914 H 12.476856 v -1.59673 l 4.090255,-4.134 q 1.15927,-1.18114 1.968572,-2.09981 0.831174,-0.91866 1.246762,-1.79359 0.415587,-0.87492 0.415587,-1.94669 0,-1.29051 -0.765555,-1.9467 -0.765556,-0.67807 -1.990445,-0.67807 -1.159271,0 -2.012319,0.39372 -0.853047,0.39371 -1.749841,1.09365 l -1.028032,-1.29051 q 0.918667,-0.76556 2.09981,-1.29051 1.203016,-0.54682 2.690382,-0.54682 2.187302,0 3.455937,1.11552 1.268635,1.11552 1.268635,3.04035 0,1.22489 -0.503079,2.29667 -0.50308,1.07178 -1.399874,2.12168 -0.896794,1.04991 -2.09981,2.20918 l -3.25908,3.21533 v 0.0875 h 7.896161 z"
         style="font-style:normal;font-variant:normal;font-weight:normal;font-stretch:normal;font-family:'Noto Sans';-inkscape-font-specification:'Noto Sans';stroke-width:0.36923754"
         id="path814"
         inkscape:connector-curvature="0" />
    </g>
    <circle
       style="opacity:1;fill:none;fill-opacity:1;fill-rule:nonzero;stroke:#000000;stroke-width:1.41111112;stroke-linecap:round;stroke-linejoin:miter;stroke-miterlimit:4;stroke-dasharray:none;stroke-dashoffset:0;stroke-opacity:1"
       id="path816"
       cx="17.638889"
       cy="279.36111"
       r="9.1186762" />
  </g>
</svg>
