<?xml version="1.0" encoding="UTF-8" standalone="no"?>
<!-- Created with Inkscape (http://www.inkscape.org/) -->

<svg
   xmlns:dc="http://purl.org/dc/elements/1.1/"
   xmlns:cc="http://creativecommons.org/ns#"
   xmlns:rdf="http://www.w3.org/1999/02/22-rdf-syntax-ns#"
   xmlns:svg="http://www.w3.org/2000/svg"
   xmlns="http://www.w3.org/2000/svg"
   xmlns:sodipodi="http://sodipodi.sourceforge.net/DTD/sodipodi-0.dtd"
   xmlns:inkscape="http://www.inkscape.org/namespaces/inkscape"
   width="76.22377mm"
   height="108.89103mm"
   viewBox="0 0 76.22377 108.89103"
   version="1.1"
   id="svg928"
   inkscape:version="0.92.3 (2405546, 2018-03-11)"
   sodipodi:docname="jet.svg">
  <defs
     id="defs922" />
  <sodipodi:namedview
     id="base"
     pagecolor="#ffffff"
     bordercolor="#666666"
     borderopacity="1.0"
     inkscape:pageopacity="0.0"
     inkscape:pageshadow="2"
     inkscape:zoom="0.98994949"
     inkscape:cx="165.18056"
     inkscape:cy="262.1772"
     inkscape:document-units="mm"
     inkscape:current-layer="layer1"
     showgrid="false" />
  <metadata
     id="metadata925">
    <rdf:RDF>
      <cc:Work
         rdf:about="">
        <dc:format>image/svg+xml</dc:format>
        <dc:type
           rdf:resource="http://purl.org/dc/dcmitype/StillImage" />
        <dc:title></dc:title>
      </cc:Work>
    </rdf:RDF>
  </metadata>
  <g
     inkscape:label="Layer 1"
     inkscape:groupmode="layer"
     id="layer1"
     transform="translate(-66.888115,-94.054487)">
    <g
       id="g3599"
       transform="matrix(0.17014224,0,0,0.17014224,34.220914,71.485597)"
       style="fill:#000000;fill-opacity:1;stroke-width:1.55507135">
      <path
         style="fill:#000000;fill-opacity:1;stroke-width:0.99999994"
         d="m 316.20117,322.66211 c -3.48345,0 -6.85979,8.8e-4 -20.57812,61.73437 l -10.28907,82.31055 -10.28906,30.86719 v 15.43359 l -95.17187,75.13672 v -25.4082 c 0,-7.50191 -1.68711,-13.7168 -3.85743,-13.7168 -2.17031,0 -3.85937,6.21425 -3.85937,13.7168 v 73.73828 h 7.7168 v -10.28906 h 105.46093 v 30.86718 l -51.44336,42.86915 v 22.29296 l 6.85743,6.85938 h 44.58593 v -5.14453 h 10.28907 v -30.86524 h 1.71484 l 5.14453,41.1543 h 13.71875 13.71875 l 5.14453,-41.1543 h 1.71485 v 30.86524 h 10.28906 v 5.14453 h 44.58594 l 6.85937,-6.85938 V 699.92188 L 347.06836,657.05273 V 626.18555 H 452.5293 v 10.28906 h 7.71679 v -73.73828 c 0,-7.50255 -1.6871,-13.7168 -3.85742,-13.7168 -2.17032,0 -3.85937,6.21489 -3.85937,13.7168 v 25.4082 L 357.35742,513.00781 V 497.57422 L 347.06836,466.70703 336.7793,384.39648 c -13.71834,-61.73349 -17.09468,-61.73437 -20.57813,-61.73437 z"
         transform="matrix(1.5550714,0,0,1.5550714,-75.715901,-369.11543)"
         id="path1457"
         inkscape:connector-curvature="0" />
    </g>
  </g>
</svg>
